HIERARCHY
ROOT Hip
{
  OFFSET 0.0 0.0 0.0
  CHANNELS 6 Xposition Yposition Zposition Xrotation Yrotation Zrotation
  JOINT LowerSpine
  {
    OFFSET 0.0 0.061367 -0.03653
    CHANNELS 3 Xrotation Yrotation Zrotation
    JOINT MiddleSpine
    {
      OFFSET 0.0 0.056002 0.002633
      CHANNELS 3 Xrotation Yrotation Zrotation
      JOINT Chest
      {
        OFFSET 0.0 0.069296 -0.013882
        CHANNELS 3 Xrotation Yrotation Zrotation
        JOINT Neck
        {
          OFFSET 0.0 0.156156 -0.002923
          CHANNELS 3 Xrotation Yrotation Zrotation
          JOINT Head
          {
            OFFSET 0.0 0.088183 0.023986
            CHANNELS 3 Xrotation Yrotation Zrotation
            End Site
            {
              OFFSET 1e-06 0.123215 0.003678
            }
          }
        }
        JOINT LClavicle
        {
          OFFSET 0.014189 0.150698 0.046467
          CHANNELS 3 Xrotation Yrotation Zrotation
          JOINT LShoulder
          {
            OFFSET 0.082893 0.021616 -0.034976
            CHANNELS 3 Xrotation Yrotation Zrotation
            JOINT LForearm
            {
              OFFSET 0.195645 -0.000695 -0.001695
              CHANNELS 3 Xrotation Yrotation Zrotation
              JOINT LHand
              {
                OFFSET 0.163209 0.000474 -0.000977
                CHANNELS 3 Xrotation Yrotation Zrotation
                End Site
                {
                  OFFSET 0.0 0.006864 0.0
                }
              }
            }
          }
        }
        JOINT RClavicle
        {
          OFFSET -0.014189 0.150698 0.046467
          CHANNELS 3 Xrotation Yrotation Zrotation
          JOINT RShoulder
          {
            OFFSET -0.082908 0.021619 -0.034982
            CHANNELS 3 Xrotation Yrotation Zrotation
            JOINT RForearm
            {
              OFFSET -0.195645 -0.000695 -0.001695
              CHANNELS 3 Xrotation Yrotation Zrotation
              JOINT RHand
              {
                OFFSET -0.163209 0.000474 -0.000977
                CHANNELS 3 Xrotation Yrotation Zrotation
                End Site
                {
                  OFFSET 0.0 0.006864 0.0
                }
              }
            }
          }
        }
      }
    }
  }
  JOINT RThigh
  {
    OFFSET -0.072558 0.02774 -0.005953
    CHANNELS 3 Xrotation Yrotation Zrotation
    JOINT RShin
    {
      OFFSET -0.005253 -0.285537 0.0
      CHANNELS 3 Xrotation Yrotation Zrotation
      JOINT RFoot
      {
        OFFSET 0.0 -0.28038 0.0
        CHANNELS 3 Xrotation Yrotation Zrotation
        JOINT RToe
        {
          OFFSET 0.0 -0.030816 0.064441
          CHANNELS 3 Xrotation Yrotation Zrotation
          End Site
          {
            OFFSET 0.0 0.0 0.043231
          }
        }
      }
    }
  }
  JOINT LThigh
  {
    OFFSET 0.072557 0.027741 -0.005953
    CHANNELS 3 Xrotation Yrotation Zrotation
    JOINT LShin
    {
      OFFSET 0.005253 -0.285539 0.0
      CHANNELS 3 Xrotation Yrotation Zrotation
      JOINT LFoot
      {
        OFFSET 0.0 -0.28038 0.0
        CHANNELS 3 Xrotation Yrotation Zrotation
        JOINT LToe
        {
          OFFSET 0.0 -0.030816 0.064441
          CHANNELS 3 Xrotation Yrotation Zrotation
          End Site
          {
            OFFSET 0.0 0.0 0.043231
          }
        }
      }
    }
  }
}
MOTION
Frames: 13
Frame Time: 0.03333333333333333
-0.084122 0.472663 -0.187544 5.842544 7.404102 2.010374 15.242298 0.41706 -7.56526 -4.43409 -1.818499 -3.951278 -8.540544 1.31131 2.92545 9.200274 0.264738 4.533084 -2.083379 3.359214 0.651353 -4.218452 3.984641 1.641268 1.024877 -22.955755 -50.704258 -5.073246 -73.80172 -4.367903 -2.437827 -1.962916 1.364951 -2.902494 5.212314 6.131431 -12.012046 38.234318 69.345764 -3.39589 65.22982 0.826312 3.4309 0.569705 0.865539 -51.846256 -4.704492 -4.198879 66.991104 -1.790774 10.578213 -5.563059 -0.868071 3.095136 2.107184 -2.115631 -1.467479 -49.130062 4.988839 5.163675 60.26564 4.48101 -8.382405 -3.609793 -0.479146 -3.920544 -2.879465 2.242938 0.979589 
-0.080394 0.453135 -0.205636 3.073135 6.215658 4.111911 21.232296 -0.69663 -9.248787 -7.281772 -2.096752 -4.431285 -10.21112 3.510458 4.181805 14.470258 0.35886 6.913761 -3.98009 4.840577 0.767117 -7.456266 3.007292 4.024801 3.070869 -20.375376 -49.481903 -3.092486 -74.164192 -5.372229 -4.531071 -3.290068 2.524898 -5.931098 7.315311 5.014888 -8.12366 34.070789 63.558464 -6.465853 68.651649 7.495007 5.513822 1.889929 1.428135 -56.683838 -4.465886 -4.111737 68.718086 0.027179 10.380062 -7.864707 -2.043589 3.977319 2.611968 -4.17201 -2.60833 -50.860989 7.51631 5.325321 58.085041 5.427049 -8.50255 -4.349591 -0.492193 -5.770915 -4.792546 3.745857 1.53142 
-0.0817 0.42773 -0.187587 3.330055 8.200126 5.478752 20.830687 -0.870191 -9.363278 -7.201799 -1.631964 -4.671266 -10.698867 4.071106 4.990777 13.880666 0.394211 6.485186 -3.893542 4.931859 0.714601 -7.342385 3.164438 5.02691 4.863346 -20.795252 -49.54517 -3.94669 -77.979294 -7.834358 -4.553488 -3.227003 2.681008 -5.666305 6.998185 4.611933 -8.4765 34.657291 63.609962 -6.756101 70.795815 8.339361 5.576762 1.915404 1.317866 -58.795135 -5.222103 -5.054463 72.635307 -0.100431 11.008403 -8.53467 -2.196106 3.930202 2.293083 -4.360042 -2.537094 -54.655472 7.5562 5.937844 60.46384 5.756818 -9.239448 -3.19219 -0.802274 -5.983145 -4.781612 3.642903 1.533821 
-0.083868 0.427525 -0.152321 3.701198 9.161761 5.560918 20.253059 -0.857239 -8.925837 -6.636275 -0.961389 -4.611136 -10.053363 4.517364 5.002994 13.264267 0.619066 5.831361 -3.505214 4.57592 0.684629 -6.773026 3.240014 5.050248 4.980456 -21.466587 -50.004028 -5.613875 -81.793976 -9.514603 -4.19457 -2.998027 2.485404 -5.14632 5.942033 4.328614 -10.321792 35.937241 65.061089 -6.488829 72.354645 6.989431 5.141635 1.734606 1.183715 -59.166897 -5.545605 -4.967092 74.188156 -0.374378 10.900457 -8.412376 -2.144265 3.634419 2.080681 -4.033647 -2.303021 -55.686024 7.236406 6.556282 62.755165 5.31657 -9.934364 -3.064067 -0.652994 -5.611176 -4.326912 3.253569 1.458316 
-0.084317 0.425876 -0.136404 3.569746 10.030447 5.488987 19.947645 -0.870994 -8.447178 -5.943635 -0.393402 -4.495337 -9.130122 4.86896 4.530168 12.765929 0.775972 5.325228 -3.153621 4.203339 0.658998 -6.301544 3.140166 5.011188 3.989295 -22.927994 -50.142208 -4.268348 -83.19545 -7.868196 -3.836401 -2.771309 2.281549 -4.863916 5.13449 3.787917 -13.059191 37.653355 66.465515 -5.748499 72.77935 4.692122 4.708711 1.553359 1.065747 -59.923607 -5.425572 -4.565631 75.018509 -0.354813 10.658659 -8.281935 -1.856676 3.413854 1.993478 -3.681302 -2.092036 -56.737156 6.703689 7.448398 65.074707 4.607098 -10.706666 -3.353232 -0.452321 -5.199509 -3.92322 2.905277 1.364222 
-0.086328 0.42039 -0.130213 3.294326 11.18449 5.483477 19.812107 -0.90165 -8.082393 -5.278546 -0.074906 -4.419176 -8.306476 5.135228 3.97317 12.424901 0.90801 5.043626 -2.916982 3.948949 0.631308 -5.930474 2.969024 4.983709 2.664163 -24.489702 -50.139656 -0.52914 -82.546463 -3.992438 -3.569297 -2.603743 2.152836 -4.700383 4.611523 3.310548 -15.845882 39.338486 67.680305 -5.252639 71.652184 2.70315 4.432356 1.420182 1.004951 -61.771999 -4.897389 -3.907189 76.087723 0.040514 10.272109 -8.238872 -1.540499 3.22838 2.009848 -3.404017 -1.991 -58.387497 6.216373 8.105844 67.613182 4.055294 -11.477142 -3.910968 -0.172116 -4.858871 -3.641389 2.708098 1.284183 
-0.088103 0.415737 -0.125889 3.259442 11.64 5.526701 19.721619 -0.915463 -7.773926 -4.864095 0.048191 -4.329854 -7.739753 5.397294 3.599257 12.27781 1.031505 4.875015 -2.753554 3.760634 0.618655 -5.680051 2.778868 4.876554 1.690315 -25.609478 -50.430542 3.211672 -81.189377 -0.123656 -3.371472 -2.485142 2.073809 -4.680439 4.323761 2.860497 -17.954063 40.269489 68.450714 -5.442315 70.555954 1.50759 4.232701 1.355259 0.969009 -63.821732 -4.500247 -3.161608 77.188766 0.392023 9.867756 -8.257602 -1.354508 3.059533 2.00415 -3.23894 -1.932221 -60.304943 5.792804 8.56284 69.614265 3.610461 -11.938142 -4.341732 0.176633 -4.528622 -3.442217 2.569159 1.233715 
-0.0881 0.413736 -0.120159 3.534789 11.282757 5.582672 19.667532 -0.956593 -7.602864 -4.743729 0.06838 -4.24626 -7.572356 5.542613 3.464798 12.275124 1.154355 4.820144 -2.659463 3.63581 0.615233 -5.541636 2.655555 4.745071 1.249784 -26.380251 -50.715694 5.163024 -79.831802 1.997989 -3.258296 -2.419049 2.040948 -4.683311 4.203311 2.496271 -19.011032 40.43552 68.747116 -5.827583 70.220901 0.971572 4.109303 1.336718 0.950087 -65.335503 -4.477232 -2.593567 77.932251 0.433726 9.716794 -8.330652 -1.26612 2.953723 1.97495 -3.166091 -1.905359 -62.089104 5.304325 8.79234 70.770004 3.216338 -12.081134 -4.529434 0.44081 -4.282062 -3.32569 2.495172 1.211307 
-0.086102 0.414172 -0.111665 4.095726 10.347529 5.639336 19.585455 -0.997038 -7.514371 -4.818432 0.042298 -4.165214 -7.679856 5.60333 3.49645 12.31416 1.253438 4.812026 -2.609858 3.555693 0.616722 -5.467702 2.618275 4.587654 1.274455 -26.897417 -50.931599 5.959214 -78.770119 2.926367 -3.208515 -2.391251 2.03286 -4.675185 4.207045 2.214455 -19.115808 39.973637 68.677727 -6.195404 70.720322 0.881646 4.036448 1.343583 0.938247 -66.367188 -4.732599 -2.207063 78.410736 0.213753 9.75113 -8.418255 -1.251227 2.903747 1.921046 -3.150035 -1.892227 -63.59478 4.779502 8.785059 71.180504 2.871709 -11.947588 -4.523881 0.608482 -4.113266 -3.263447 2.463333 1.203309 
-0.081461 0.416578 -0.100938 4.919533 9.023465 5.683597 19.450377 -1.024763 -7.473871 -5.03476 -0.007565 -4.077948 -8.004012 5.584281 3.649579 12.382296 1.326977 4.829439 -2.586803 3.508921 0.620981 -5.444739 2.633907 4.406458 1.611784 -27.160997 -51.15913 6.076985 -78.049088 3.153759 -3.195008 -2.389011 2.036361 -4.647802 4.297566 2.050496 -18.479565 39.037239 68.445152 -6.509718 71.786781 1.123044 3.995468 1.358413 0.931585 -67.134094 -5.159969 -1.976409 78.670547 -0.188669 9.885207 -8.465581 -1.302655 2.881391 1.845615 -3.166164 -1.883888 -64.827293 4.28578 8.522006 71.068947 2.597547 -11.633554 -4.418435 0.703625 -3.997819 -3.234842 2.454963 1.202592 
-0.07463 0.420325 -0.088079 5.812478 7.556752 5.716023 19.252722 -1.05134 -7.459647 -5.305859 -0.06347 -3.972449 -8.450961 5.522274 3.853398 12.447463 1.395026 4.849597 -2.573727 3.476608 0.626864 -5.433388 2.676514 4.224205 2.109864 -27.121309 -51.378315 6.018002 -77.767326 3.203176 -3.197905 -2.396592 2.042965 -4.576374 4.39766 2.017598 -17.380581 37.905399 68.143593 -6.757633 73.099564 1.575473 3.96822 1.368965 0.927582 -67.59005 -5.615483 -1.841544 78.697662 -0.62585 10.011674 -8.419246 -1.395435 2.87259 1.756255 -3.197558 -1.876609 -65.748177 3.928513 8.139582 70.736336 2.492112 -11.254286 -4.256114 0.735975 -3.925744 -3.222484 2.452569 1.201812 
-0.066778 0.425037 -0.072555 6.541895 6.155056 5.698999 19.033739 -1.066963 -7.451857 -5.54642 -0.089359 -3.865983 -8.855665 5.453962 4.081732 12.463887 1.43776 4.86184 -2.559012 3.452731 0.630055 -5.414746 2.745708 4.076259 2.616893 -26.884518 -51.535519 5.712559 -77.967529 3.043329 -3.200956 -2.404585 2.044142 -4.505646 4.485146 2.033813 -16.121601 36.766129 67.846275 -6.973482 74.577934 2.147484 3.943644 1.370536 0.922954 -67.540787 -6.03623 -1.787235 78.578568 -1.022257 10.153022 -8.334439 -1.461907 2.894766 1.678113 -3.216057 -1.865017 -66.037323 3.700354 7.754906 70.192192 2.477489 -10.872979 -4.096664 0.70017 -3.880134 -3.210049 2.449244 1.198836 
-0.059259 0.430167 -0.054067 6.913212 4.994675 5.632503 18.869076 -1.077935 -7.475529 -5.706566 -0.070752 -3.777833 -9.143363 5.394042 4.339049 12.454 1.459967 4.852112 -2.548562 3.451013 0.633419 -5.391391 2.840473 4.003113 3.022481 -26.483095 -51.652092 5.015916 -78.621872 2.567776 -3.205322 -2.411304 2.041999 -4.408664 4.505701 2.090294 -14.974417 35.834023 67.63475 -7.274869 76.114807 2.835732 3.938785 1.35842 0.919779 -66.860023 -6.401706 -1.787383 78.368408 -1.322231 10.333177 -8.224018 -1.48286 2.949938 1.627708 -3.212933 -1.853713 -65.604675 3.605746 7.43097 69.60675 2.526222 -10.529306 -3.942963 0.641145 -3.871829 -3.204554 2.445097 1.197771 
